<?xml version="1.0" standalone="no"?>
<!DOCTYPE svg PUBLIC "-//W3C//DTD SVG 20010904//EN"
 "http://www.w3.org/TR/2001/REC-SVG-20010904/DTD/svg10.dtd">
<svg version="1.0" xmlns="http://www.w3.org/2000/svg"
 width="512.000000pt" height="512.000000pt" viewBox="0 0 512.000000 512.000000"
 preserveAspectRatio="xMidYMid meet">
<metadata>
Created by potrace 1.14, written by Peter Selinger 2001-2017
</metadata>
<g transform="translate(0.000000,512.000000) scale(0.100000,-0.100000)"
fill="#000000" stroke="none">
<path d="M620 4807 c-130 -39 -229 -105 -323 -216 -87 -102 -129 -193 -147
-322 -41 -287 188 -607 490 -684 105 -27 150 -85 150 -195 0 -75 -21 -125 -62
-146 -27 -14 -32 -14 -55 1 -14 9 -50 25 -81 36 -179 62 -411 -39 -493 -216
-54 -115 -35 -258 48 -355 76 -88 226 -160 334 -160 52 0 154 30 195 57 22 14
26 14 49 -1 58 -38 78 -105 52 -169 -26 -61 -65 -96 -125 -113 -114 -32 -200
-105 -250 -212 -23 -49 -27 -70 -27 -147 0 -77 4 -98 27 -147 48 -103 136
-177 248 -209 87 -24 134 -93 145 -209 29 -326 142 -571 360 -785 221 -217
457 -313 825 -335 212 -13 1631 -13 1860 0 323 18 527 86 735 245 92 70 157
139 245 255 133 177 212 374 239 595 15 125 15 2046 0 2170 -24 199 -112 409
-243 583 -189 251 -414 397 -703 457 -162 33 -287 36 -1253 32 -920 -4 -959
-4 -1065 -25 -61 -11 -148 -35 -195 -52 -143 -53 -153 -55 -202 -41 -29 9 -54
27 -78 54 -90 106 -161 167 -243 206 -45 23 -109 48 -142 56 -88 22 -224 19
-315 -8z"/>
</g>
</svg>
